<svg width="536" height="396" viewBox="0 0 536 396" fill="none" xmlns="http://www.w3.org/2000/svg">
<path d="M21 198L133.955 18.0001H337.273L316.021 62.8686M21 198L133.955 378H337.273L315.864 333.33M21 198L156.545 63.0001L316.021 62.8686M21 198L156.545 333L315.864 333.33M21 198H314.682M382.455 63.0001L314.682 198M382.455 63.0001L316.021 62.8686M382.455 63.0001L359.864 108M314.682 198L359.864 108M314.682 198L314.908 198.45M382.455 333L315.864 333.33M382.455 333L359.864 288M382.455 333L314.908 198.45M359.864 108L416.594 164.361M359.864 288L416.205 232.025M359.864 288L314.908 198.45M405.045 198.45C405.045 211.035 409.195 222.654 416.205 232.025M405.045 198.45C405.045 185.634 409.349 173.82 416.594 164.361M405.045 198.45H314.908M416.205 232.025C426.501 245.787 442.967 254.7 461.523 254.7C492.714 254.7 518 229.516 518 198.45C518 167.384 492.714 142.2 461.523 142.2C443.199 142.2 426.913 150.892 416.594 164.361" stroke="#FAFAFA" stroke-width="34.2588"/>
</svg>
