<svg width="1920" height="400" viewBox="0 0 1920 400" fill="none" xmlns="http://www.w3.org/2000/svg">
<path opacity="0.35" d="M502.744 -121.473C557.493 41.1457 219.83 125.058 -26.6105 -74.4836C-105.61 -33.6502 -261.31 67.0165 -252.11 143.016C-245.539 197.304 156.165 181.383 490.487 176.987M502.744 -121.473C495.621 -142.628 481.858 -165.115 460.39 -188.484C421.188 -231.153 403.901 -283.323 401.252 -335.518M502.744 -121.473C257.258 -237.238 58.489 -348.284 59.3895 -422.484C60.8113 -539.642 223.637 -460.464 401.252 -335.518M502.744 -121.473C527.313 -109.887 552.35 -98.2539 577.702 -86.6055M401.252 -335.518C391.299 -531.641 588.014 -728.138 605.39 -422.484C609.655 -347.45 603.695 -267.698 593.302 -188.731M401.252 -335.518C465.654 -290.214 532 -238.892 593.302 -188.731M593.302 -188.731C588.782 -154.39 583.423 -120.197 577.702 -86.6055M593.302 -188.731C660.201 -133.99 721.092 -80.6306 766.89 -37.9835C787.068 -19.1934 798.289 -1.96655 801.706 13.9958M577.702 -86.6055C562.044 5.33353 543.671 92.77 532.349 166.425M577.702 -86.6055C650.976 -52.9382 726.878 -19.1452 801.706 13.9958M532.349 166.425C531.828 169.817 531.321 173.181 530.83 176.514M532.349 166.425C518.723 169.947 504.755 173.464 490.487 176.987M532.349 166.425C699.83 123.134 815.634 79.0734 801.706 13.9958M530.83 176.514C520.364 247.617 517.139 305.003 530.416 339.869M530.83 176.514C599.515 175.818 664.424 175.772 721.314 177.127M530.83 176.514C517.514 176.649 504.056 176.808 490.487 176.987M530.416 339.869C533.411 347.732 537.245 354.45 542.024 359.921M530.416 339.869C542.788 338.607 554.607 337.465 565.796 336.463M530.416 339.869C208.627 372.701 -486.628 487.312 -174.11 360.016C28.5264 277.478 289.326 226.654 490.487 176.987M542.024 359.921C560.951 381.588 594.707 383.71 649.89 360.016C720.021 329.905 670.531 327.083 565.796 336.463M542.024 359.921C409.403 489.986 286.535 596.6 193.39 647.016C-218.61 870.016 1120.39 691.516 1259.39 711.016C1322.04 719.806 1307.29 627.829 1248.97 491.036M542.024 359.921C549.915 352.183 557.84 344.361 565.796 336.463M565.796 336.463C616.76 285.87 668.968 232.154 721.314 177.127M801.706 13.9958C818.858 21.5923 835.953 29.1546 852.948 36.6733M852.948 36.6733C923.492 67.8835 992.296 98.3421 1056.17 127.379M852.948 36.6733C809.409 83.699 765.313 130.876 721.314 177.127M852.948 36.6733C881.723 5.59296 910.254 -25.4214 938.352 -56.0589M1056.17 127.379C1084.69 140.346 1112.23 153.029 1138.51 165.369M1056.17 127.379C1018.67 65.6934 978.887 3.69586 938.352 -56.0589M1056.17 127.379C1072.06 153.527 1087.55 179.62 1102.5 205.461M1138.51 165.369C1335.7 257.986 1461.51 331.275 1395.89 360.016C1349.5 380.333 1290.21 409.973 1227.02 441.816M1138.51 165.369C1126.69 178.635 1114.65 192.023 1102.5 205.461M1138.51 165.369C1269.99 17.7621 1374.23 -114.727 1306.89 -132.984C1260.75 -145.493 1175.18 -185.346 1089.37 -221.052M1227.02 441.816C1215.94 447.397 1204.75 453.047 1193.48 458.725M1227.02 441.816C1193.71 370.046 1150.88 289.065 1102.5 205.461M1227.02 441.816C1234.88 458.765 1242.22 475.2 1248.97 491.036M1193.48 458.725C995.368 558.581 775.309 667.511 797.39 577.016C808.253 532.492 894.036 434.491 993.571 325.018M1193.48 458.725C1212.09 469.692 1230.71 480.495 1248.97 491.036M1193.48 458.725C1118.71 414.668 1044.1 367.97 993.571 325.018M993.571 325.018C1029.06 285.989 1066.29 245.503 1102.5 205.461M993.571 325.018C947.119 285.53 921.025 249.209 933.89 221.016C947.319 191.587 857.189 180.363 721.314 177.127M1089.37 -221.052C911.083 -295.238 731.757 -351.525 902.89 -107.484C914.748 -90.5728 926.582 -73.4104 938.352 -56.0589M1089.37 -221.052C1041.34 -168.689 990.596 -113.026 938.352 -56.0589M1089.37 -221.052C1340.28 -494.606 1517.03 -678.061 1445.89 -486.484C1292.89 -74.4836 1531.89 691.516 1445.89 613.516C1415.41 585.87 1336.3 541.45 1248.97 491.036M1800.38 -57.3498C1679.72 64.6575 1452.98 -199.245 1520.44 -509.082C1448.45 -561.294 1288.54 -655.124 1224.79 -612.742C1179.25 -582.468 1374.05 -230.796 1528.26 65.8671M1800.38 -57.3498C1816.07 -73.2216 1829.97 -95.6243 1841.19 -125.306C1861.69 -179.505 1900.52 -218.398 1945.95 -244.228M1800.38 -57.3498C1793.43 -328.673 1803.27 -556.145 1869.96 -588.695C1975.25 -640.091 1977.72 -459.051 1945.95 -244.228M1800.38 -57.3498C1801.07 -30.1946 1801.93 -2.60018 1802.92 25.282M1945.95 -244.228C2116.67 -341.281 2380.62 -253.892 2115.4 -100.971C2050.29 -63.4314 1976.37 -32.9044 1901.16 -6.69128M1945.95 -244.228C1934.43 -166.334 1918.41 -83.9984 1901.16 -6.69128M1901.16 -6.69128C1868.45 4.70832 1835.5 15.2921 1802.92 25.282M1901.16 -6.69128C1882.34 77.6754 1862.04 156.053 1844.54 216.134C1836.82 242.605 1826.48 260.373 1813.76 270.6M1802.92 25.282C1713.76 52.624 1627.4 75.5174 1556.51 98.5133M1802.92 25.282C1805.79 105.869 1809.72 188.861 1813.76 270.6M1556.51 98.5133C1553.25 99.5725 1550.02 100.632 1546.82 101.692M1556.51 98.5133C1547.24 87.9249 1537.82 77.0287 1528.26 65.8671M1556.51 98.5133C1670.47 228.658 1761.88 312.295 1813.76 270.6M1546.82 101.692C1478.6 124.306 1425.89 147.221 1400.71 174.754M1546.82 101.692C1578.32 162.733 1607.53 220.694 1631.9 272.121M1546.82 101.692C1540.71 89.8578 1534.52 77.9078 1528.26 65.8671M1400.71 174.754C1395.03 180.964 1390.76 187.408 1388.02 194.137M1400.71 174.754C1407.4 185.238 1413.73 195.283 1419.66 204.827M1400.71 174.754C1226.73 -97.9305 811.819 -667.459 1066.01 -445.52C1230.83 -301.614 1393.47 -91.4971 1528.26 65.8671M1388.02 194.137C1377.17 220.784 1390.45 251.89 1436.42 290.533C1494.84 339.643 1475.12 294.166 1419.66 204.827M1388.02 194.137C1212.22 134.138 1061.75 72.3103 974.845 11.7698C590.442 -256.012 1351.81 859.833 1396.87 992.763C1417.18 1052.68 1492.71 998.155 1588.69 884.568M1388.02 194.137C1398.48 197.707 1409.03 201.271 1419.66 204.827M1419.66 204.827C1487.76 227.608 1559.21 250.097 1631.9 272.121M1813.76 270.6C1814.68 289.336 1815.61 308.006 1816.53 326.567M1816.53 326.567C1820.37 403.612 1824.09 478.764 1826.86 548.874M1816.53 326.567C1754.96 308.815 1692.99 290.632 1631.9 272.121M1816.53 326.567C1857.23 338.299 1897.76 349.844 1937.76 361.17M1826.86 548.874C1828.1 580.181 1829.15 610.483 1829.94 639.499M1826.86 548.874C1865.11 487.651 1902.6 424.24 1937.76 361.17M1826.86 548.874C1810.65 574.826 1794.3 600.385 1777.94 625.358M1829.94 639.499C1835.85 857.276 1826.94 1002.61 1771.77 956.91C1732.77 924.606 1679.64 884.963 1622.79 842.834M1829.94 639.499C1812.78 634.907 1795.41 630.173 1777.94 625.358M1829.94 639.499C2020.9 690.596 2186.1 724.15 2172.14 655.793C2162.57 608.956 2159.71 514.604 2153.03 421.902M1622.79 842.834C1612.82 835.449 1602.74 827.988 1592.61 820.477M1622.79 842.834C1671.92 780.819 1725.01 706.153 1777.94 625.358M1622.79 842.834C1611.18 857.479 1599.8 871.42 1588.69 884.568M1592.61 820.477C1414.35 688.397 1218.13 540.792 1308.89 519.837C1353.54 509.526 1479.65 542.099 1622.18 581.799M1592.61 820.477C1591.18 842.03 1589.9 863.519 1588.69 884.568M1592.61 820.477C1598.35 733.885 1606.52 646.242 1622.18 581.799M1622.18 581.799C1672.99 595.953 1725.9 611.013 1777.94 625.358M1622.18 581.799C1636.57 522.554 1657.28 482.918 1688.25 481.737C1720.58 480.503 1690.09 394.947 1631.9 272.121M2153.03 421.902C2139.15 229.295 2108.82 43.8059 1967.75 306.376C1957.98 324.571 1947.97 342.856 1937.76 361.17M2153.03 421.902C2084.67 402.538 2012.13 382.231 1937.76 361.17M2153.03 421.902C2510.18 523.064 2753.51 598.482 2550.39 621.05C2113.59 669.585 1536.78 1227.41 1567.8 1115.53C1578.79 1075.87 1582.91 985.243 1588.69 884.568" stroke="#FEF08A" stroke-width="4"/>
</svg>
