<svg width="1380" height="1021" viewBox="0 0 1380 1021" fill="none" xmlns="http://www.w3.org/2000/svg">
<path opacity="0.35" d="M349.112 -86.3085C556.878 205.66 974.021 180.174 848.841 -65.4304C723.662 -311.034 1133.99 -630.64 1051.32 -251.933C968.654 126.775 590.286 553.382 884.189 513.805C1178.09 474.227 -378.322 346.86 90.4164 292.668C559.155 238.475 1248.89 398.966 1103.71 161.804C958.529 -75.3576 583.043 -596.235 525.35 -398.463C467.658 -200.69 1816.29 683.685 1602.82 714.008C1389.35 744.332 905.114 874.658 968.042 762.429C1030.97 650.199 1775.85 290.405 1649.39 215.209C1522.94 140.013 1106.19 -284.919 1253.37 131.352C1400.56 547.622 1505.8 1071.59 1377.13 1015.5C1248.46 959.412 -89.3198 772.016 367.413 667.765C824.146 563.514 2136.12 -443.845 1878.16 -88.0199C1620.21 267.806 1644.87 1069.85 1582.96 971.628C1521.04 873.409 1122.16 542.729 1195.07 456.121C1267.99 369.513 59.0971 157.297 73.5141 62.6953C85.0477 -12.9857 262.052 -68.1743 349.112 -86.3085Z" stroke="#171717" stroke-width="2"/>
</svg>
